<mxfile host="app.diagrams.net" modified="2024-04-01T21:49:22.513Z" agent="Mozilla/5.0 (Windows NT 10.0; Win64; x64) AppleWebKit/537.36 (KHTML, like Gecko) Chrome/121.0.0.0 Safari/537.36 OPR/107.0.0.0" version="24.2.1" etag="4g79NzEuxr9eq3J_wyvP" type="github">
  <diagram name="PÃ¡gina-1" id="B8q1tnpYbjvXdPxfc6lY">
    <mxGraphModel>
      <root>
        <mxCell id="0" />
        <mxCell id="1" parent="0" />
      </root>
    </mxGraphModel>
  </diagram>
</mxfile>
